<!-- Generated by IcoMoon.io -->
<svg version="1.1" xmlns="http://www.w3.org/2000/svg" width="32" height="32" viewBox="0 0 32 32">
<title>attachment</title>
<path d="M20.437 10.286l-8.874 8.874c-0.613 0.613-0.613 1.606 0 2.218s1.606 0.613 2.218 0l8.874-8.874c1.838-1.838 1.838-4.817 0-6.655s-4.817-1.838-6.655 0l-8.873 8.873c-3.063 3.063-3.063 8.029 0 11.092s8.029 3.063 11.092 0l8.874-8.874 2.218 2.219-8.873 8.873c-4.288 4.288-11.241 4.288-15.529 0s-4.288-11.241 0-15.529l8.873-8.873c3.063-3.063 8.029-3.063 11.092 0s3.063 8.029 0 11.092l-8.874 8.874c-1.838 1.838-4.817 1.838-6.655 0s-1.838-4.817 0-6.655l8.873-8.873 2.219 2.218z"></path>
</svg>
