<!-- Generated by IcoMoon.io -->
<svg version="1.1" xmlns="http://www.w3.org/2000/svg" width="32" height="32" viewBox="0 0 32 32">
<title>lock</title>
<path d="M26.889 12.889h1.555c0.859 0 1.556 0.696 1.556 1.556v15.555c0 0.859-0.696 1.556-1.556 1.556h-24.889c-0.859 0-1.556-0.696-1.556-1.556v-15.555c0-0.859 0.696-1.556 1.556-1.556h1.556v-1.556c0-6.014 4.875-10.889 10.889-10.889s10.889 4.875 10.889 10.889v1.556zM5.111 16v12.445h21.778v-12.445h-21.778zM14.444 19.111h3.111v6.222h-3.111v-6.222zM23.778 12.889v-1.556c0-4.296-3.482-7.778-7.778-7.778s-7.778 3.482-7.778 7.778v1.556h15.556z"></path>
</svg>
