<!-- Generated by IcoMoon.io -->
<svg version="1.1" xmlns="http://www.w3.org/2000/svg" width="32" height="32" viewBox="0 0 32 32">
<title>remove</title>
<path d="M23.879 6.545h7.879v3.152h-3.152v20.485c0 0.87-0.705 1.576-1.576 1.576h-22.061c-0.87 0-1.576-0.706-1.576-1.576v-20.485h-3.151v-3.152h7.879v-4.727c0-0.87 0.706-1.576 1.576-1.576h12.606c0.87 0 1.576 0.706 1.576 1.576v4.727zM25.455 9.697h-18.909v18.909h18.909v-18.909zM11.273 14.424h3.152v9.455h-3.152v-9.455zM17.576 14.424h3.151v9.455h-3.151v-9.455zM11.273 3.394v3.152h9.455v-3.152h-9.455z"></path>
</svg>
