<!-- Generated by IcoMoon.io -->
<svg version="1.1" xmlns="http://www.w3.org/2000/svg" width="32" height="32" viewBox="0 0 32 32">
<title>search</title>
<path d="M24.935 22.84l6.345 6.345-2.095 2.095-6.345-6.345c-2.281 1.825-5.174 2.917-8.321 2.917-7.36 0-13.333-5.973-13.333-13.333s5.973-13.333 13.333-13.333c7.36 0 13.333 5.973 13.333 13.333 0 3.147-1.092 6.040-2.917 8.321zM21.962 21.74c1.812-1.867 2.926-4.414 2.926-7.222 0-5.73-4.641-10.37-10.37-10.37s-10.37 4.641-10.37 10.37c0 5.73 4.641 10.37 10.37 10.37 2.808 0 5.355-1.115 7.222-2.926l0.222-0.222z"></path>
</svg>
