<!-- Generated by IcoMoon.io -->
<svg version="1.1" xmlns="http://www.w3.org/2000/svg" width="24" height="32" viewBox="0 0 24 32">
<title>user</title>
<path d="M0.561 30.877c0-6.201 5.027-11.228 11.228-11.228s11.228 5.027 11.228 11.228h-2.807c0-4.651-3.77-8.421-8.421-8.421s-8.421 3.77-8.421 8.421h-2.807zM11.79 18.246c-4.653 0-8.421-3.768-8.421-8.421s3.768-8.421 8.421-8.421c4.653 0 8.421 3.768 8.421 8.421s-3.768 8.421-8.421 8.421zM11.79 15.439c3.102 0 5.614-2.512 5.614-5.614s-2.512-5.614-5.614-5.614c-3.102 0-5.614 2.512-5.614 5.614s2.512 5.614 5.614 5.614z"></path>
</svg>
